<?xml version="1.0" standalone="no"?>
<!DOCTYPE svg PUBLIC "-//W3C//DTD SVG 20010904//EN"
 "http://www.w3.org/TR/2001/REC-SVG-20010904/DTD/svg10.dtd">
<svg version="1.0" xmlns="http://www.w3.org/2000/svg"
 width="726.000000pt" height="456.000000pt" viewBox="0 0 726.000000 456.000000"
 preserveAspectRatio="xMidYMid meet">
<metadata>
Created by potrace 1.16, written by Peter Selinger 2001-2019
</metadata>
<g transform="translate(0.000000,456.000000) scale(0.100000,-0.100000)"
fill="#c70127" stroke="none">
<path d="M2935 4545 c-182 -30 -356 -91 -488 -173 -249 -154 -435 -396 -536
-696 l-28 -86 -159 -4 c-177 -4 -234 -16 -350 -73 -138 -67 -262 -190 -342
-342 l-43 -81 -63 0 c-35 0 -98 -9 -142 -20 -268 -68 -506 -272 -651 -556
-168 -328 -176 -699 -24 -1020 121 -254 279 -418 516 -535 240 -118 440 -145
873 -116 33 2 35 0 56 -58 117 -322 402 -526 792 -567 279 -29 540 50 778 236
l70 54 29 -40 c167 -231 554 -405 1017 -459 190 -22 427 0 595 56 165 54 367
185 492 319 51 54 155 191 177 233 1 0 35 -6 76 -14 113 -22 307 -19 405 7
155 40 287 119 390 232 55 62 58 63 146 85 160 39 282 110 406 234 267 267
389 677 304 1024 -88 360 -401 629 -836 720 -44 10 -138 20 -210 24 l-130 6
-7 83 c-30 363 -311 764 -653 932 -257 125 -585 142 -914 47 -58 -16 -76 -18
-79 -8 -9 26 -121 158 -188 221 -169 159 -411 277 -669 326 -125 23 -487 28
-610 9z m530 -190 c403 -70 690 -265 836 -566 l22 -47 66 25 c413 159 794 133
1059 -71 73 -56 185 -174 245 -258 56 -78 127 -227 152 -318 20 -71 25 -206
12 -311 l-8 -66 198 1 c215 1 301 -11 450 -61 270 -90 464 -270 539 -499 27
-82 29 -101 29 -234 0 -121 -4 -158 -23 -225 -65 -223 -196 -416 -358 -524
-93 -62 -166 -90 -277 -104 l-88 -11 -24 -42 c-39 -67 -137 -157 -212 -196
-112 -59 -171 -73 -313 -72 -121 1 -167 9 -336 59 -18 6 -27 -4 -64 -72 -114
-212 -302 -392 -506 -484 -126 -57 -234 -80 -404 -86 -455 -16 -942 165 -1103
410 -19 29 -49 93 -67 142 -19 50 -35 92 -36 94 -2 2 -61 -55 -131 -126 -138
-140 -221 -199 -353 -252 -120 -47 -225 -64 -359 -58 -225 10 -392 77 -527
212 -112 112 -172 236 -199 412 -4 24 -12 43 -19 43 -6 0 -53 -9 -103 -20
-446 -97 -871 5 -1115 268 -101 109 -178 246 -224 398 -25 81 -28 104 -28 254
-1 143 2 177 22 250 26 94 93 243 143 317 168 249 421 389 667 368 48 -4 89
-8 91 -9 2 0 14 28 26 64 77 229 220 372 426 427 84 22 247 22 363 -1 101 -20
100 -20 110 57 9 62 57 216 97 303 72 161 226 348 360 436 157 104 360 172
569 192 82 7 304 -3 395 -19z"/>
</g>
</svg>
